# xmcd
# 
# Track frame offsets:
#     150
#     17880
#     40947
#     62221
# 
# Disc length: 1065
# 
# Revision: 3
# Processed by: cddbd v1.5.2PL0 Copyright (c) Steve Scherf et al.
# Submitted via: fre:ac v1.0.17
# 
DISCID=30042704
DTITLE=スキマスイッチ - ユリーカ
DYEAR=2012
DGENRE=JPop
TTITLE0=ユリーカ
TTITLE1=きみがいいなら(live)
TTITLE2=ガラナ(live)
TTITLE3=ユリーカ(backing track)
EXTD=宇宙兄弟テーマソング
EXTT0=
EXTT1=
EXTT2=
EXTT3=
PLAYORDER=
